<mxfile host="app.diagrams.net" modified="2021-02-09T21:34:50.568Z" agent="5.0 (Windows NT 6.3) AppleWebKit/537.36 (KHTML, like Gecko) Chrome/88.0.4324.152 Safari/537.36" etag="biT7az_SZsDdUWeauIxz" version="14.3.0" type="github">
  <diagram id="C5RBs43oDa-KdzZeNtuy" name="Page-1">
    <mxGraphModel dx="1695" dy="1623" grid="1" gridSize="10" guides="1" tooltips="1" connect="1" arrows="1" fold="1" page="1" pageScale="1" pageWidth="827" pageHeight="1169" math="0" shadow="0">
      <root>
        <mxCell id="WIyWlLk6GJQsqaUBKTNV-0" />
        <mxCell id="WIyWlLk6GJQsqaUBKTNV-1" parent="WIyWlLk6GJQsqaUBKTNV-0" />
        <mxCell id="WIyWlLk6GJQsqaUBKTNV-7" value="USUARIO" style="rounded=1;whiteSpace=wrap;html=1;fontSize=12;glass=0;strokeWidth=1;shadow=0;" parent="WIyWlLk6GJQsqaUBKTNV-1" vertex="1">
          <mxGeometry x="440" y="110" width="120" height="40" as="geometry" />
        </mxCell>
        <mxCell id="FzlKPwfHCi2CkfXrIBkZ-12" value="EXCURSIONES" style="rounded=1;whiteSpace=wrap;html=1;" parent="WIyWlLk6GJQsqaUBKTNV-1" vertex="1">
          <mxGeometry x="100" y="110" width="110" height="40" as="geometry" />
        </mxCell>
        <mxCell id="FzlKPwfHCi2CkfXrIBkZ-13" value="ELIGE" style="rhombus;whiteSpace=wrap;html=1;" parent="WIyWlLk6GJQsqaUBKTNV-1" vertex="1">
          <mxGeometry x="290" y="90" width="80" height="80" as="geometry" />
        </mxCell>
        <mxCell id="FzlKPwfHCi2CkfXrIBkZ-56" value="" style="endArrow=classic;html=1;" parent="WIyWlLk6GJQsqaUBKTNV-1" edge="1">
          <mxGeometry width="50" height="50" relative="1" as="geometry">
            <mxPoint x="150" y="110" as="sourcePoint" />
            <mxPoint x="256.23410790811613" y="47.046454572968514" as="targetPoint" />
          </mxGeometry>
        </mxCell>
        <mxCell id="FzlKPwfHCi2CkfXrIBkZ-57" value="" style="endArrow=classic;html=1;entryX=0.355;entryY=0.975;entryDx=0;entryDy=0;entryPerimeter=0;" parent="WIyWlLk6GJQsqaUBKTNV-1" edge="1">
          <mxGeometry width="50" height="50" relative="1" as="geometry">
            <mxPoint x="146" y="110" as="sourcePoint" />
            <mxPoint x="204.04999999999995" y="-1" as="targetPoint" />
          </mxGeometry>
        </mxCell>
        <mxCell id="FzlKPwfHCi2CkfXrIBkZ-58" value="" style="endArrow=classic;html=1;entryX=0.727;entryY=1;entryDx=0;entryDy=0;entryPerimeter=0;" parent="WIyWlLk6GJQsqaUBKTNV-1" edge="1">
          <mxGeometry width="50" height="50" relative="1" as="geometry">
            <mxPoint x="146" y="110" as="sourcePoint" />
            <mxPoint x="129.97000000000003" as="targetPoint" />
          </mxGeometry>
        </mxCell>
        <mxCell id="FzlKPwfHCi2CkfXrIBkZ-61" value="" style="endArrow=none;html=1;strokeColor=#000000;entryX=0;entryY=0.5;entryDx=0;entryDy=0;" parent="WIyWlLk6GJQsqaUBKTNV-1" target="FzlKPwfHCi2CkfXrIBkZ-13" edge="1">
          <mxGeometry width="50" height="50" relative="1" as="geometry">
            <mxPoint x="210" y="130" as="sourcePoint" />
            <mxPoint x="260" y="80" as="targetPoint" />
          </mxGeometry>
        </mxCell>
        <mxCell id="FzlKPwfHCi2CkfXrIBkZ-62" value="" style="endArrow=none;html=1;strokeColor=#000000;entryX=0;entryY=0.5;entryDx=0;entryDy=0;" parent="WIyWlLk6GJQsqaUBKTNV-1" target="WIyWlLk6GJQsqaUBKTNV-7" edge="1">
          <mxGeometry width="50" height="50" relative="1" as="geometry">
            <mxPoint x="370" y="130" as="sourcePoint" />
            <mxPoint x="420" y="80" as="targetPoint" />
          </mxGeometry>
        </mxCell>
        <mxCell id="FzlKPwfHCi2CkfXrIBkZ-63" style="edgeStyle=orthogonalEdgeStyle;rounded=0;orthogonalLoop=1;jettySize=auto;html=1;exitX=0.75;exitY=0;exitDx=0;exitDy=0;" parent="WIyWlLk6GJQsqaUBKTNV-1" source="FzlKPwfHCi2CkfXrIBkZ-64" edge="1">
          <mxGeometry relative="1" as="geometry">
            <mxPoint x="930" y="60" as="targetPoint" />
          </mxGeometry>
        </mxCell>
        <mxCell id="FzlKPwfHCi2CkfXrIBkZ-64" value="CLIENTE" style="rounded=1;whiteSpace=wrap;html=1;fontSize=12;glass=0;strokeWidth=1;shadow=0;" parent="WIyWlLk6GJQsqaUBKTNV-1" vertex="1">
          <mxGeometry x="840" y="110" width="120" height="40" as="geometry" />
        </mxCell>
        <mxCell id="FzlKPwfHCi2CkfXrIBkZ-65" value="" style="endArrow=classic;html=1;exitX=1;exitY=0.25;exitDx=0;exitDy=0;" parent="WIyWlLk6GJQsqaUBKTNV-1" source="FzlKPwfHCi2CkfXrIBkZ-64" target="FzlKPwfHCi2CkfXrIBkZ-66" edge="1">
          <mxGeometry width="50" height="50" relative="1" as="geometry">
            <mxPoint x="960" y="110" as="sourcePoint" />
            <mxPoint x="1010" y="60" as="targetPoint" />
          </mxGeometry>
        </mxCell>
        <mxCell id="FzlKPwfHCi2CkfXrIBkZ-66" value="NOMBRE" style="ellipse;whiteSpace=wrap;html=1;" parent="WIyWlLk6GJQsqaUBKTNV-1" vertex="1">
          <mxGeometry x="1000" y="30" width="110" height="40" as="geometry" />
        </mxCell>
        <mxCell id="FzlKPwfHCi2CkfXrIBkZ-67" value="APELLIDO" style="ellipse;whiteSpace=wrap;html=1;" parent="WIyWlLk6GJQsqaUBKTNV-1" vertex="1">
          <mxGeometry x="1030" y="80" width="110" height="40" as="geometry" />
        </mxCell>
        <mxCell id="FzlKPwfHCi2CkfXrIBkZ-68" value="CONTRASEÃ‘A" style="ellipse;whiteSpace=wrap;html=1;" parent="WIyWlLk6GJQsqaUBKTNV-1" vertex="1">
          <mxGeometry x="1050" y="140" width="110" height="40" as="geometry" />
        </mxCell>
        <mxCell id="FzlKPwfHCi2CkfXrIBkZ-69" value="ID" style="ellipse;whiteSpace=wrap;html=1;" parent="WIyWlLk6GJQsqaUBKTNV-1" vertex="1">
          <mxGeometry x="880" y="10" width="110" height="40" as="geometry" />
        </mxCell>
        <mxCell id="FzlKPwfHCi2CkfXrIBkZ-70" value="EMAIL" style="ellipse;whiteSpace=wrap;html=1;" parent="WIyWlLk6GJQsqaUBKTNV-1" vertex="1">
          <mxGeometry x="1030" y="190" width="110" height="40" as="geometry" />
        </mxCell>
        <mxCell id="FzlKPwfHCi2CkfXrIBkZ-71" value="" style="endArrow=classic;html=1;entryX=0;entryY=0.75;entryDx=0;entryDy=0;entryPerimeter=0;exitX=1;exitY=0.5;exitDx=0;exitDy=0;" parent="WIyWlLk6GJQsqaUBKTNV-1" source="FzlKPwfHCi2CkfXrIBkZ-64" target="FzlKPwfHCi2CkfXrIBkZ-67" edge="1">
          <mxGeometry width="50" height="50" relative="1" as="geometry">
            <mxPoint x="960" y="140" as="sourcePoint" />
            <mxPoint x="1010" y="90" as="targetPoint" />
          </mxGeometry>
        </mxCell>
        <mxCell id="FzlKPwfHCi2CkfXrIBkZ-72" value="" style="endArrow=classic;html=1;exitX=1;exitY=0.75;exitDx=0;exitDy=0;" parent="WIyWlLk6GJQsqaUBKTNV-1" source="FzlKPwfHCi2CkfXrIBkZ-64" edge="1">
          <mxGeometry width="50" height="50" relative="1" as="geometry">
            <mxPoint x="960" y="150" as="sourcePoint" />
            <mxPoint x="1040" y="160" as="targetPoint" />
          </mxGeometry>
        </mxCell>
        <mxCell id="FzlKPwfHCi2CkfXrIBkZ-73" value="" style="endArrow=classic;html=1;exitX=1;exitY=1;exitDx=0;exitDy=0;" parent="WIyWlLk6GJQsqaUBKTNV-1" source="FzlKPwfHCi2CkfXrIBkZ-64" edge="1">
          <mxGeometry width="50" height="50" relative="1" as="geometry">
            <mxPoint x="930" y="150" as="sourcePoint" />
            <mxPoint x="1020" y="200" as="targetPoint" />
          </mxGeometry>
        </mxCell>
        <mxCell id="FzlKPwfHCi2CkfXrIBkZ-74" value="REGISTRA" style="rhombus;whiteSpace=wrap;html=1;" parent="WIyWlLk6GJQsqaUBKTNV-1" vertex="1">
          <mxGeometry x="660" y="90" width="80" height="80" as="geometry" />
        </mxCell>
        <mxCell id="FzlKPwfHCi2CkfXrIBkZ-75" value="" style="endArrow=none;html=1;strokeColor=#000000;entryX=0;entryY=0.5;entryDx=0;entryDy=0;exitX=1;exitY=0.5;exitDx=0;exitDy=0;" parent="WIyWlLk6GJQsqaUBKTNV-1" source="FzlKPwfHCi2CkfXrIBkZ-74" target="FzlKPwfHCi2CkfXrIBkZ-64" edge="1">
          <mxGeometry width="50" height="50" relative="1" as="geometry">
            <mxPoint x="690" y="180" as="sourcePoint" />
            <mxPoint x="740" y="130" as="targetPoint" />
          </mxGeometry>
        </mxCell>
        <mxCell id="FzlKPwfHCi2CkfXrIBkZ-76" value="" style="endArrow=none;html=1;strokeColor=#000000;entryX=0;entryY=0.5;entryDx=0;entryDy=0;sketch=0;shadow=0;" parent="WIyWlLk6GJQsqaUBKTNV-1" target="FzlKPwfHCi2CkfXrIBkZ-74" edge="1">
          <mxGeometry width="50" height="50" relative="1" as="geometry">
            <mxPoint x="560" y="130" as="sourcePoint" />
            <mxPoint x="610" y="80" as="targetPoint" />
          </mxGeometry>
        </mxCell>
        <mxCell id="FzlKPwfHCi2CkfXrIBkZ-77" value="POSTEA" style="rhombus;whiteSpace=wrap;html=1;" parent="WIyWlLk6GJQsqaUBKTNV-1" vertex="1">
          <mxGeometry x="270" y="200" width="80" height="80" as="geometry" />
        </mxCell>
        <mxCell id="FzlKPwfHCi2CkfXrIBkZ-78" value="CONSULTA" style="rhombus;whiteSpace=wrap;html=1;" parent="WIyWlLk6GJQsqaUBKTNV-1" vertex="1">
          <mxGeometry x="460" y="200" width="80" height="80" as="geometry" />
        </mxCell>
        <mxCell id="FzlKPwfHCi2CkfXrIBkZ-84" value="" style="endArrow=classic;html=1;shadow=0;strokeColor=#000000;exitX=0.5;exitY=1;exitDx=0;exitDy=0;entryX=0.5;entryY=0;entryDx=0;entryDy=0;" parent="WIyWlLk6GJQsqaUBKTNV-1" source="WIyWlLk6GJQsqaUBKTNV-7" target="FzlKPwfHCi2CkfXrIBkZ-78" edge="1">
          <mxGeometry width="50" height="50" relative="1" as="geometry">
            <mxPoint x="580" y="280" as="sourcePoint" />
            <mxPoint x="630" y="230" as="targetPoint" />
          </mxGeometry>
        </mxCell>
        <mxCell id="FzlKPwfHCi2CkfXrIBkZ-85" value="" style="endArrow=classic;html=1;shadow=0;strokeColor=#000000;exitX=0.5;exitY=1;exitDx=0;exitDy=0;entryX=0.5;entryY=0;entryDx=0;entryDy=0;" parent="WIyWlLk6GJQsqaUBKTNV-1" source="WIyWlLk6GJQsqaUBKTNV-7" target="FzlKPwfHCi2CkfXrIBkZ-77" edge="1">
          <mxGeometry width="50" height="50" relative="1" as="geometry">
            <mxPoint x="340" y="220" as="sourcePoint" />
            <mxPoint x="390" y="170" as="targetPoint" />
          </mxGeometry>
        </mxCell>
        <mxCell id="FzlKPwfHCi2CkfXrIBkZ-86" value="ESCRIBE" style="rhombus;whiteSpace=wrap;html=1;" parent="WIyWlLk6GJQsqaUBKTNV-1" vertex="1">
          <mxGeometry x="580" y="200" width="80" height="80" as="geometry" />
        </mxCell>
        <mxCell id="FzlKPwfHCi2CkfXrIBkZ-87" value="" style="endArrow=classic;html=1;shadow=0;strokeColor=#000000;exitX=0.5;exitY=1;exitDx=0;exitDy=0;entryX=0.5;entryY=0;entryDx=0;entryDy=0;" parent="WIyWlLk6GJQsqaUBKTNV-1" source="WIyWlLk6GJQsqaUBKTNV-7" target="FzlKPwfHCi2CkfXrIBkZ-86" edge="1">
          <mxGeometry width="50" height="50" relative="1" as="geometry">
            <mxPoint x="580" y="280" as="sourcePoint" />
            <mxPoint x="630" y="230" as="targetPoint" />
          </mxGeometry>
        </mxCell>
        <mxCell id="FzlKPwfHCi2CkfXrIBkZ-88" value="FECHA" style="ellipse;whiteSpace=wrap;html=1;" parent="WIyWlLk6GJQsqaUBKTNV-1" vertex="1">
          <mxGeometry x="890" y="330" width="110" height="40" as="geometry" />
        </mxCell>
        <mxCell id="FzlKPwfHCi2CkfXrIBkZ-89" value="CONSULTAS" style="ellipse;whiteSpace=wrap;html=1;" parent="WIyWlLk6GJQsqaUBKTNV-1" vertex="1">
          <mxGeometry x="940" y="300" width="110" height="40" as="geometry" />
        </mxCell>
        <mxCell id="FzlKPwfHCi2CkfXrIBkZ-90" value="ID" style="ellipse;whiteSpace=wrap;html=1;" parent="WIyWlLk6GJQsqaUBKTNV-1" vertex="1">
          <mxGeometry x="950" y="260" width="110" height="40" as="geometry" />
        </mxCell>
        <mxCell id="FzlKPwfHCi2CkfXrIBkZ-91" value="CHAT" style="rounded=1;whiteSpace=wrap;html=1;fontSize=12;glass=0;strokeWidth=1;shadow=0;" parent="WIyWlLk6GJQsqaUBKTNV-1" vertex="1">
          <mxGeometry x="750" y="220" width="120" height="40" as="geometry" />
        </mxCell>
        <mxCell id="FzlKPwfHCi2CkfXrIBkZ-93" value="ACTUAL" style="ellipse;whiteSpace=wrap;html=1;" parent="WIyWlLk6GJQsqaUBKTNV-1" vertex="1">
          <mxGeometry x="420" y="430" width="110" height="40" as="geometry" />
        </mxCell>
        <mxCell id="FzlKPwfHCi2CkfXrIBkZ-94" value="CLIMA" style="rounded=1;whiteSpace=wrap;html=1;fontSize=12;glass=0;strokeWidth=1;shadow=0;" parent="WIyWlLk6GJQsqaUBKTNV-1" vertex="1">
          <mxGeometry x="450" y="330" width="120" height="40" as="geometry" />
        </mxCell>
        <mxCell id="FzlKPwfHCi2CkfXrIBkZ-95" value="TEMA" style="rounded=1;whiteSpace=wrap;html=1;fontSize=12;glass=0;strokeWidth=1;shadow=0;" parent="WIyWlLk6GJQsqaUBKTNV-1" vertex="1">
          <mxGeometry x="255" y="330" width="120" height="40" as="geometry" />
        </mxCell>
        <mxCell id="FzlKPwfHCi2CkfXrIBkZ-96" value="PERIODO" style="ellipse;whiteSpace=wrap;html=1;" parent="WIyWlLk6GJQsqaUBKTNV-1" vertex="1">
          <mxGeometry x="560" y="430" width="110" height="40" as="geometry" />
        </mxCell>
        <mxCell id="FzlKPwfHCi2CkfXrIBkZ-97" value="USUARIO" style="ellipse;whiteSpace=wrap;html=1;" parent="WIyWlLk6GJQsqaUBKTNV-1" vertex="1">
          <mxGeometry x="110" y="450" width="110" height="40" as="geometry" />
        </mxCell>
        <mxCell id="FzlKPwfHCi2CkfXrIBkZ-98" value="FECHA" style="ellipse;whiteSpace=wrap;html=1;" parent="WIyWlLk6GJQsqaUBKTNV-1" vertex="1">
          <mxGeometry x="60" y="410" width="110" height="40" as="geometry" />
        </mxCell>
        <mxCell id="FzlKPwfHCi2CkfXrIBkZ-99" value="NOMBRE" style="ellipse;whiteSpace=wrap;html=1;" parent="WIyWlLk6GJQsqaUBKTNV-1" vertex="1">
          <mxGeometry x="30" y="370" width="110" height="40" as="geometry" />
        </mxCell>
        <mxCell id="FzlKPwfHCi2CkfXrIBkZ-100" value="ID" style="ellipse;whiteSpace=wrap;html=1;" parent="WIyWlLk6GJQsqaUBKTNV-1" vertex="1">
          <mxGeometry x="10" y="330" width="110" height="40" as="geometry" />
        </mxCell>
        <mxCell id="FzlKPwfHCi2CkfXrIBkZ-101" value="" style="endArrow=classic;html=1;shadow=0;strokeColor=#000000;entryX=0;entryY=0.5;entryDx=0;entryDy=0;exitX=1;exitY=1;exitDx=0;exitDy=0;" parent="WIyWlLk6GJQsqaUBKTNV-1" source="FzlKPwfHCi2CkfXrIBkZ-91" target="FzlKPwfHCi2CkfXrIBkZ-90" edge="1">
          <mxGeometry width="50" height="50" relative="1" as="geometry">
            <mxPoint x="670" y="360" as="sourcePoint" />
            <mxPoint x="720" y="310" as="targetPoint" />
          </mxGeometry>
        </mxCell>
        <mxCell id="FzlKPwfHCi2CkfXrIBkZ-102" value="" style="endArrow=classic;html=1;shadow=0;strokeColor=#000000;exitX=1;exitY=1;exitDx=0;exitDy=0;entryX=0.018;entryY=0.225;entryDx=0;entryDy=0;entryPerimeter=0;" parent="WIyWlLk6GJQsqaUBKTNV-1" source="FzlKPwfHCi2CkfXrIBkZ-91" target="FzlKPwfHCi2CkfXrIBkZ-89" edge="1">
          <mxGeometry width="50" height="50" relative="1" as="geometry">
            <mxPoint x="670" y="360" as="sourcePoint" />
            <mxPoint x="720" y="310" as="targetPoint" />
          </mxGeometry>
        </mxCell>
        <mxCell id="FzlKPwfHCi2CkfXrIBkZ-103" value="" style="endArrow=classic;html=1;shadow=0;strokeColor=#000000;exitX=1;exitY=1;exitDx=0;exitDy=0;entryX=0.273;entryY=0;entryDx=0;entryDy=0;entryPerimeter=0;" parent="WIyWlLk6GJQsqaUBKTNV-1" source="FzlKPwfHCi2CkfXrIBkZ-91" target="FzlKPwfHCi2CkfXrIBkZ-88" edge="1">
          <mxGeometry width="50" height="50" relative="1" as="geometry">
            <mxPoint x="670" y="360" as="sourcePoint" />
            <mxPoint x="720" y="310" as="targetPoint" />
          </mxGeometry>
        </mxCell>
        <mxCell id="FzlKPwfHCi2CkfXrIBkZ-104" value="" style="endArrow=none;html=1;shadow=0;strokeColor=#000000;entryX=0;entryY=0.5;entryDx=0;entryDy=0;exitX=1;exitY=0.5;exitDx=0;exitDy=0;" parent="WIyWlLk6GJQsqaUBKTNV-1" source="FzlKPwfHCi2CkfXrIBkZ-86" target="FzlKPwfHCi2CkfXrIBkZ-91" edge="1">
          <mxGeometry width="50" height="50" relative="1" as="geometry">
            <mxPoint x="670" y="360" as="sourcePoint" />
            <mxPoint x="720" y="310" as="targetPoint" />
          </mxGeometry>
        </mxCell>
        <mxCell id="FzlKPwfHCi2CkfXrIBkZ-105" value="" style="endArrow=none;html=1;shadow=0;strokeColor=#000000;entryX=0.5;entryY=1;entryDx=0;entryDy=0;" parent="WIyWlLk6GJQsqaUBKTNV-1" target="FzlKPwfHCi2CkfXrIBkZ-78" edge="1">
          <mxGeometry width="50" height="50" relative="1" as="geometry">
            <mxPoint x="500" y="328" as="sourcePoint" />
            <mxPoint x="720" y="310" as="targetPoint" />
          </mxGeometry>
        </mxCell>
        <mxCell id="FzlKPwfHCi2CkfXrIBkZ-106" value="" style="endArrow=none;html=1;shadow=0;strokeColor=#000000;entryX=0.5;entryY=1;entryDx=0;entryDy=0;" parent="WIyWlLk6GJQsqaUBKTNV-1" target="FzlKPwfHCi2CkfXrIBkZ-77" edge="1">
          <mxGeometry width="50" height="50" relative="1" as="geometry">
            <mxPoint x="310" y="326" as="sourcePoint" />
            <mxPoint x="720" y="310" as="targetPoint" />
          </mxGeometry>
        </mxCell>
        <mxCell id="FzlKPwfHCi2CkfXrIBkZ-108" value="LOCALIDAD" style="ellipse;whiteSpace=wrap;html=1;" parent="WIyWlLk6GJQsqaUBKTNV-1" vertex="1">
          <mxGeometry x="660" y="370" width="110" height="40" as="geometry" />
        </mxCell>
        <mxCell id="FzlKPwfHCi2CkfXrIBkZ-109" value="" style="endArrow=classic;html=1;shadow=0;strokeColor=#000000;entryX=0;entryY=0.5;entryDx=0;entryDy=0;" parent="WIyWlLk6GJQsqaUBKTNV-1" source="FzlKPwfHCi2CkfXrIBkZ-94" target="FzlKPwfHCi2CkfXrIBkZ-108" edge="1">
          <mxGeometry width="50" height="50" relative="1" as="geometry">
            <mxPoint x="670" y="370" as="sourcePoint" />
            <mxPoint x="720" y="320" as="targetPoint" />
          </mxGeometry>
        </mxCell>
        <mxCell id="FzlKPwfHCi2CkfXrIBkZ-110" value="" style="endArrow=classic;html=1;shadow=0;strokeColor=#000000;exitX=1;exitY=1;exitDx=0;exitDy=0;entryX=0.5;entryY=0;entryDx=0;entryDy=0;" parent="WIyWlLk6GJQsqaUBKTNV-1" source="FzlKPwfHCi2CkfXrIBkZ-94" target="FzlKPwfHCi2CkfXrIBkZ-96" edge="1">
          <mxGeometry width="50" height="50" relative="1" as="geometry">
            <mxPoint x="670" y="370" as="sourcePoint" />
            <mxPoint x="720" y="320" as="targetPoint" />
          </mxGeometry>
        </mxCell>
        <mxCell id="FzlKPwfHCi2CkfXrIBkZ-111" value="" style="endArrow=classic;html=1;shadow=0;strokeColor=#000000;exitX=1;exitY=1;exitDx=0;exitDy=0;entryX=1;entryY=0;entryDx=0;entryDy=0;" parent="WIyWlLk6GJQsqaUBKTNV-1" source="FzlKPwfHCi2CkfXrIBkZ-94" target="FzlKPwfHCi2CkfXrIBkZ-93" edge="1">
          <mxGeometry width="50" height="50" relative="1" as="geometry">
            <mxPoint x="670" y="370" as="sourcePoint" />
            <mxPoint x="720" y="320" as="targetPoint" />
          </mxGeometry>
        </mxCell>
        <mxCell id="FzlKPwfHCi2CkfXrIBkZ-112" value="" style="endArrow=classic;html=1;shadow=0;strokeColor=#000000;entryX=1;entryY=0.25;entryDx=0;entryDy=0;entryPerimeter=0;" parent="WIyWlLk6GJQsqaUBKTNV-1" target="FzlKPwfHCi2CkfXrIBkZ-98" edge="1">
          <mxGeometry width="50" height="50" relative="1" as="geometry">
            <mxPoint x="255" y="350" as="sourcePoint" />
            <mxPoint x="305" y="300" as="targetPoint" />
          </mxGeometry>
        </mxCell>
        <mxCell id="FzlKPwfHCi2CkfXrIBkZ-113" value="" style="endArrow=classic;html=1;shadow=0;strokeColor=#000000;entryX=1.009;entryY=0.25;entryDx=0;entryDy=0;entryPerimeter=0;" parent="WIyWlLk6GJQsqaUBKTNV-1" target="FzlKPwfHCi2CkfXrIBkZ-99" edge="1">
          <mxGeometry width="50" height="50" relative="1" as="geometry">
            <mxPoint x="255" y="350" as="sourcePoint" />
            <mxPoint x="305" y="300" as="targetPoint" />
          </mxGeometry>
        </mxCell>
        <mxCell id="FzlKPwfHCi2CkfXrIBkZ-114" value="" style="endArrow=classic;html=1;shadow=0;strokeColor=#000000;entryX=1;entryY=0.5;entryDx=0;entryDy=0;" parent="WIyWlLk6GJQsqaUBKTNV-1" target="FzlKPwfHCi2CkfXrIBkZ-100" edge="1">
          <mxGeometry width="50" height="50" relative="1" as="geometry">
            <mxPoint x="255" y="350" as="sourcePoint" />
            <mxPoint x="305" y="300" as="targetPoint" />
          </mxGeometry>
        </mxCell>
        <mxCell id="FzlKPwfHCi2CkfXrIBkZ-115" value="" style="endArrow=classic;html=1;shadow=0;strokeColor=#000000;entryX=0.727;entryY=0;entryDx=0;entryDy=0;entryPerimeter=0;" parent="WIyWlLk6GJQsqaUBKTNV-1" target="FzlKPwfHCi2CkfXrIBkZ-97" edge="1">
          <mxGeometry width="50" height="50" relative="1" as="geometry">
            <mxPoint x="255" y="350" as="sourcePoint" />
            <mxPoint x="305" y="300" as="targetPoint" />
          </mxGeometry>
        </mxCell>
        <mxCell id="WO-i5hGIn6nYLA2ixtJo-0" value="ID" style="ellipse;whiteSpace=wrap;html=1;" parent="WIyWlLk6GJQsqaUBKTNV-1" vertex="1">
          <mxGeometry x="250" y="20" width="110" height="40" as="geometry" />
        </mxCell>
        <mxCell id="WO-i5hGIn6nYLA2ixtJo-1" value="Localidad" style="ellipse;whiteSpace=wrap;html=1;" parent="WIyWlLk6GJQsqaUBKTNV-1" vertex="1">
          <mxGeometry x="190" y="-40" width="110" height="40" as="geometry" />
        </mxCell>
        <mxCell id="WO-i5hGIn6nYLA2ixtJo-2" value="Atracciones" style="ellipse;whiteSpace=wrap;html=1;" parent="WIyWlLk6GJQsqaUBKTNV-1" vertex="1">
          <mxGeometry x="70" y="-50" width="110" height="40" as="geometry" />
        </mxCell>
        <mxCell id="WO-i5hGIn6nYLA2ixtJo-4" value="Actividades" style="ellipse;whiteSpace=wrap;html=1;" parent="WIyWlLk6GJQsqaUBKTNV-1" vertex="1">
          <mxGeometry x="-60" y="-50" width="110" height="40" as="geometry" />
        </mxCell>
        <mxCell id="WO-i5hGIn6nYLA2ixtJo-5" value="" style="endArrow=classic;html=1;exitX=0.409;exitY=-0.075;exitDx=0;exitDy=0;exitPerimeter=0;entryX=0.773;entryY=1.025;entryDx=0;entryDy=0;entryPerimeter=0;" parent="WIyWlLk6GJQsqaUBKTNV-1" source="FzlKPwfHCi2CkfXrIBkZ-12" target="WO-i5hGIn6nYLA2ixtJo-4" edge="1">
          <mxGeometry width="50" height="50" relative="1" as="geometry">
            <mxPoint x="90" y="-10" as="sourcePoint" />
            <mxPoint x="140" y="-60" as="targetPoint" />
          </mxGeometry>
        </mxCell>
        <mxCell id="bsNvNGSJAn72j7pwiCpA-0" value="ID&amp;nbsp;" style="ellipse;whiteSpace=wrap;html=1;" vertex="1" parent="WIyWlLk6GJQsqaUBKTNV-1">
          <mxGeometry x="660" y="310" width="110" height="40" as="geometry" />
        </mxCell>
        <mxCell id="bsNvNGSJAn72j7pwiCpA-1" value="" style="endArrow=classic;html=1;entryX=0;entryY=0.25;entryDx=0;entryDy=0;entryPerimeter=0;exitX=1;exitY=1;exitDx=0;exitDy=0;" edge="1" parent="WIyWlLk6GJQsqaUBKTNV-1" source="FzlKPwfHCi2CkfXrIBkZ-94" target="bsNvNGSJAn72j7pwiCpA-0">
          <mxGeometry width="50" height="50" relative="1" as="geometry">
            <mxPoint x="630" y="300" as="sourcePoint" />
            <mxPoint x="680" y="250" as="targetPoint" />
          </mxGeometry>
        </mxCell>
      </root>
    </mxGraphModel>
  </diagram>
</mxfile>
